<svg viewBox="0 0 200 71" xmlns="http://www.w3.org/2000/svg"><path fill="#ffffff" d="m18.24 13.46c-1.38.33-1.91 1.95-3.01 2.97-3.78.2-4.68 5.04-.53 5.53 1.63.08 2.32-1.75 3.7-1.91.81-.12 1.5-.16 2.2-.57 3.08-1.84 1.01-6.96-2.36-6.02zm1.22 4.96c-.69.12-1.38.12-2.03.41-1.14.28-2.81 3.05-3.94.85-.2-2.56 2.28-.37 4.07-3.82.57-.81 1.14-1.06 1.5-1.06 1.49.16 2.51 2.76.4 3.62zm3.7-7.16c-1.91-1.54-5.2-.45-7.4.61-1.14.85-1.38 2.07-2.32 2.89-.69.57-1.38.49-2.11.98-3.01 2.36-3.13 8.82 2.97 9.11 1.59 0 2.85-.81 4.35-1.02 4.63-.12 5.89-1.18 5.73-6.26.08-2 .69-4.89-1.22-6.31zm-.25 5.53c-.2 1.46.37 3.33-.61 4.63-.94 1.22-3.33.57-5.12 1.22-4.11 1.87-8.33-.49-5.49-5.28.49-.73 1.63-.69 2.44-1.26 2.44-1.99.57-3.21 6.5-4.15 2.61 0 2.53 2.28 2.28 4.84zm9.39 7.2c-.61-2.28-1.14-3.66-1.18-5.65-.28-3.98 4.72-9.39 1.34-14.11-2.32-2.93-5.69-3.17-9.35-3.7-2.2-.2-4.23-.73-6.3-.45-4.35.69-5.37 5.41-7.36 8.42-2.92 4.84-10.6.73-9.3 14.47 1.3 8.46 6.46 9.92 13.17 10.53 5.89.65 8.5 1.22 11.87 1.38 4.19-.08 7.28-2.03 7.64-6.18.12-1.46-.12-3.29-.53-4.71zm-3.01 8.29c-2.52 1.87-6.5.85-15.77-.28-4.19-.61-9.55-.37-11.55-7.36-.77-2.73-.97-8.3 1.1-10.33 1.22-1.22 3.21-1.54 4.8-2.4 3.7-1.87 4.19-6.5 6.83-9.23 1.02-.89 2.15-1.3 3.9-1.18 3.37.57 11.14.24 13.09 4.31 1.75 3.66-2.24 8.29-2.07 12.44-.08 4.19 4.15 10.74-.33 14.03zm-8.82-24.92c-2.24.28-4.72-.24-6.3 2.03-1.87 2.64-1.14 3.62-5.33 5.08-.53.28-.94.65-1.3 1.14-1.74 2.73-3.21 11.95 6.96 12.12 1.54 0 2.85-.33 4.31-.37 1.87-.08 8.54 1.3 8.25-5.45-.12-2.28-.85-3.74-.16-6.38 1.5-5.41-.29-8.58-6.43-8.17zm5.37 5.98c-.24 1.38-.65 2.68-.69 4.11-.08 3.21 2.2 8.09-2.85 8.5-1.34.16-3.17-.24-6.06.2-6.38.77-10.45-2.72-7.6-9.51.77-1.34 2.76-1.18 4.02-2.36 4.11-4.59.94-5.24 8.98-5.49 2.41.07 4.93.85 4.2 4.55zm3.05 4.1c.12-3.05 3.58-7.93.04-11.34-1.91-1.79-4.68-2.03-7.68-2.15-1.91-.04-3.54-.45-5.28.16-2.97 1.14-3.54 4.27-5.16 6.5-2.36 3.46-7.4.49-7.64 9.72.16 11.95 10.29 9.96 20.25 10.81 3.13.04 5.94-1.42 6.42-4.55.28-1.26.08-3.09-.24-4.47-.39-1.59-.79-3.22-.71-4.68zm-7.89 12.07c-4.39-.65-12.68.81-15.33-4.35-1.1-2.11-1.18-3.94-.89-6.59.65-5.08 2.93-3.37 6.38-6.14 2.52-2.24 2.72-7.36 6.95-7.2 3.98.33 11.87-.53 10.81 5.85-.53 2.76-1.63 4.47-1.54 7.03-.24 3.23 5.21 12.91-6.38 11.4zm37.29-.73c-.81 0-3.46-.61-3.46-3.62 0-3.13 2.64-3.62 3.98-3.62s3.98.69 3.98 3.62c0 3.01-2.64 3.62-3.46 3.62v1.18h17.36v-1.18c-5.98 0-9.68-8.66-9.68-18.94 0-5.41 1.3-7.15 2.32-7.15v-1.18h-20.63v1.18c1.02 0 2.32 1.75 2.32 7.15 0 10.29-3.7 18.94-9.68 18.94v1.18h16.95zm.33-20.77h.41c0 1.95 1.83 5.08 1.83 8.25 0 1.38-.98 1.95-2.03 1.95-1.06 0-2.03-.57-2.03-1.95-.01-3.17 1.82-6.3 1.82-8.25zm18.29 7.24c0-3.82 0-9.76 4.19-9.76 3.17 0 5.28 4.11 5.28 10.24 0 7.85-3.01 13.05-7.48 13.05v1.18h22.52v-1.18c-4.47 0-7.48-5.2-7.48-13.05 0-6.14 2.11-10.24 5.28-10.24 4.19 0 4.19 5.94 4.19 9.76h1.18l1.38-13.74h-31.62l1.38 13.74zm59.71-3.62h-1.18s0 14.76-6.75 14.76c-4.88 0-5.81-6.79-5.81-10.65 0-6.55 2.48-13.05 7.6-13.05v-1.18h-22.48v1.18c5.12 0 7.68 6.5 7.68 13.05 0 6.5-2.56 13.05-7.68 13.05v1.18h30zm20.37 17.15c-.81 0-3.46-.61-3.46-3.62 0-3.13 2.64-3.62 3.98-3.62s3.98.69 3.98 3.62c0 3.01-2.64 3.62-3.46 3.62v1.18h17.36v-1.18c-5.98 0-9.68-8.66-9.68-18.94 0-5.41 1.3-7.15 2.32-7.15v-1.18h-20.63v1.18c1.02 0 2.32 1.75 2.32 7.15 0 10.29-3.7 18.94-9.68 18.94v1.18h16.95zm.32-20.77h.41c0 1.95 1.83 5.08 1.83 8.25 0 1.38-.98 1.95-2.03 1.95-1.06 0-2.03-.57-2.03-1.95-.01-3.17 1.82-6.3 1.82-8.25zm30.29 23.98c7.24 0 11.46-4.07 11.46-8.78 0-8.21-10.94-11.18-10.94-15.33 0-1.87 1.5-2.68 2.68-2.68 5.81 0 5.81 10.53 5.81 10.53h1.22l1.46-14.23h-8.58c-5.37 0-11.91.81-11.91 5.28 0 5.16 10.85 7.72 10.85 12.52 0 3.33-2.52 4.35-4.23 4.35-3.33 0-7.03-2.89-7.03-6.67 0-3.86 2.68-3.86 2.68-3.86v-1.22c-4.47 0-7.72 2.6-7.72 8.17.02 7.17 7.66 11.92 14.25 11.92zm-170.24 14.05c5.41 0 9.02 3.9 9.02 9.8h1.26l1.42-14.19h-7.15c-10.04 0-21.91 3.01-21.91 14.72 0 9.43 8.21 14.63 14.43 14.63 10.04 0 13.54-8.54 14.07-12.85l-1.34-.57c-1.26 3.46-3.58 6.22-8.25 6.22-7.03 0-9.76-4.68-9.76-9.47 0-5.12 4.02-8.29 8.21-8.29zm13.74-3.21c4.72 0 7.89 5.2 7.89 13.05s-3.17 13.05-7.89 13.05v1.18h22.52v-1.18c-4.72 0-7.89-5.2-7.89-13.05s3.17-13.05 7.89-13.05v-1.18h-22.52zm47.35 0c1.95 0 3.25 2.36 3.25 5.85 0 1.02-.08 2.24-.33 3.62-2.32-1.22-5.94-3.58-5.94-7.07 0-1.42.81-2.4 1.99-2.4v-1.18h-21.77v1.18c5.12 0 7.68 6.5 7.68 13.05 0 6.5-2.56 13.05-7.68 13.05v1.18h18.78v-1.18c-2.81 0-4.68-3.5-4.68-8.74 0-3.9 1.38-6.26 3.33-6.26 1.02 0 2.2.61 3.41 2.07 1.46 1.71 2.89 4.51 2.89 7.93 0 3.01-1.59 5-3.94 5v1.18h19.59v-1.18c-5.12 0-7.68-6.55-7.68-13.05 0-6.55 2.56-13.05 7.68-13.05v-1.18h-16.58zm38.7 2.4c8.21 0 8.21 10.16 8.21 10.16h1.18l1.38-13.74h-30.85v1.18c5.12 0 7.68 6.5 7.68 13.05 0 6.5-2.56 13.05-7.68 13.05v1.18h30.86l-1.38-13.74h-1.18s0 10.16-8.21 10.16c-3.01 0-5-2.52-5-6.26 0-1.5.81-2.36 2.2-2.36 2.6 0 4.96 2.68 4.96 5.08h1.18v-14.23h-1.18c0 2.4-2.36 5.04-4.96 5.04-1.3 0-2.2-.69-2.2-2.32-.01-3.73 1.98-6.25 4.99-6.25zm73.17 4.75c0-5.41 1.3-7.15 2.32-7.15v-1.18h-20.65v1.18c1.02 0 2.32 1.75 2.32 7.15 0 8.42-2.89 18.09-7.03 18.09h-.41c-2.56 0-4.63-4.31-4.63-12.2 0-13.05 7.72-13.05 7.72-13.05v-1.18h-19.72v1.18s2.28 0 2.28 2.89c0 2.44-2.76 6.26-2.76 6.26s-2.76-3.82-2.76-6.26c0-2.89 2.28-2.89 2.28-2.89v-1.18h-19.31v1.18s7.72 0 7.72 13.05-7.69 13.06-7.69 13.06v1.18h18.29v-1.18s-4.63 0-4.63-6.83c0-2.36.85-5.57 2.72-5.57 2.93 0 2.93 13.54 2.93 13.54h.89s0-13.54 2.93-13.54c1.87 0 2.76 3.21 2.76 5.57 0 6.83-4.68 6.83-4.68 6.83v1.18h30.37v-1.18c-.81 0-3.46-.61-3.46-3.62 0-3.13 2.64-3.62 3.98-3.62s3.98.69 3.98 3.62c0 3.01-2.64 3.62-3.46 3.62v1.18h17.38v-1.18c-5.98 0-9.68-8.66-9.68-18.95zm-8.21 8.38c-1.06 0-2.03-.57-2.03-1.95 0-3.17 1.83-6.3 1.83-8.25h.41c0 1.95 1.83 5.08 1.83 8.25 0 1.38-.98 1.95-2.04 1.95z"/></svg>